<svg width="100" height="100" viewBox="0 0 100 100" fill="none" xmlns="http://www.w3.org/2000/svg">
<g clip-path="url(#clip0_2_374)">
<circle cx="50" cy="50" r="50" fill="#71CC8A"/>
<path d="M46.2626 50.299L37.7538 2.0434M50.2888 46.8374L26.7835 6.12501M47.802 52.7264L10.2658 21.2298M48.6612 47.4866L4.48566 31.4081M49.9101 53.5653H0.91013M47.2003 48.9991L3.02476 65.0777M51.9495 52.6526L14.4134 84.1492M46.9386 50.8966L23.4333 91.609M53.5061 51.4103L44.9974 99.6659M48.5388 53.286L56.7021 99.5825M52.972 48.5474L77.472 90.9826M50.3725 53.1772L86.3848 83.3951M52.0838 47.6602L98.1287 64.4192M53.0685 52.8778H100.079M49.3022 46.3569L95.3471 29.598M53.4103 49.7209L89.4225 19.5031M47.7281 48.3809L72.2281 5.94565M53.0374 48.3172L61.2007 2.02077M45.9576 51.7964L21.4576 9.36116M48.5571 47.1665L12.5448 16.9487M48.2344 53.5509L2.18942 36.7919M47.2497 48.3333H0.239044M50.5023 53.6182L4.45737 70.3772M46.3942 50.2542L10.3819 80.4721M52.1066 52.0631L27.6066 94.4983M46.7972 52.1267L38.6339 98.4232M53.1444 50.3633L61.6531 98.6189M49.1181 53.8248L72.6235 94.5372M51.6633 47.8556L89.1995 79.3522M50.8041 53.0954L94.9796 69.174M50.5252 47.3258H99.5252M53.235 51.8919L97.4106 35.8134M47.4656 47.0525L85.0018 15.5559M52.4765 48.8086L75.9818 8.09614M46.6787 49.4928L55.1874 1.23718M51.646 47.617L43.4827 1.32057" stroke="black" stroke-opacity="0.14" stroke-width="0.5"/>
<path d="M53.5 50C53.5 51.933 51.933 53.5 50 53.5C48.067 53.5 46.5 51.933 46.5 50C46.5 48.067 48.067 46.5 50 46.5C51.933 46.5 53.5 48.067 53.5 50Z" fill="#303030" stroke="#303030"/>
<path d="M98 50C98 76.5097 76.5097 98 50 98C23.4903 98 2 76.5097 2 50C2 23.4903 23.4903 2 50 2C76.5097 2 98 23.4903 98 50Z" stroke="#303030" stroke-width="4"/>
<path d="M32.6178 74.42C28.8845 74.42 25.9911 73.4167 23.9378 71.41C21.8845 69.4034 20.8578 66.5334 20.8578 62.8V28.78H27.5778V62.52C27.5778 64.5267 28.0678 66.0667 29.0478 67.14C30.0745 68.2134 31.5211 68.75 33.3878 68.75C35.4878 68.75 37.2378 68.1667 38.6378 67L40.7378 71.83C39.7112 72.7167 38.4745 73.37 37.0278 73.79C35.6278 74.21 34.1578 74.42 32.6178 74.42ZM14.5578 42.43V36.9H38.2178V42.43H14.5578Z" fill="#303030"/>
<path d="M60.7524 74V36.06H73.4224V47.12L71.5324 43.97C72.6524 41.1233 74.4724 39 76.9924 37.6C79.5124 36.1533 82.5691 35.43 86.1624 35.43V47.4C85.5558 47.3067 85.0191 47.26 84.5524 47.26C84.1324 47.2133 83.6658 47.19 83.1524 47.19C80.4458 47.19 78.2524 47.9367 76.5724 49.43C74.8924 50.8767 74.0524 53.2567 74.0524 56.57V74H60.7524Z" fill="white"/>
</g>
<defs>
<clipPath id="clip0_2_374">
<rect width="100" height="100" fill="white"/>
</clipPath>
</defs>
</svg>
