<svg width="100" height="100" viewBox="0 0 32 32" fill="none" xmlns="http://www.w3.org/2000/svg">
<circle cx="16" cy="16" r="16" fill="#84CC16"/>
<path d="M11.29 22.108C10.33 22.108 9.58598 21.85 9.05798 21.334C8.52998 20.818 8.26598 20.08 8.26598 19.12V10.372H9.99398V19.048C9.99398 19.564 10.12 19.96 10.372 20.236C10.636 20.512 11.008 20.65 11.488 20.65C12.028 20.65 12.478 20.5 12.838 20.2L13.378 21.442C13.114 21.67 12.796 21.838 12.424 21.946C12.064 22.054 11.686 22.108 11.29 22.108ZM6.64598 13.882V12.46H12.73V13.882H6.64598ZM15.7371 22.09C15.4731 22.09 15.2451 21.994 15.0531 21.802C14.8731 21.61 14.7831 21.376 14.7831 21.1C14.7831 20.812 14.8731 20.578 15.0531 20.398C15.2451 20.218 15.4731 20.128 15.7371 20.128C16.0011 20.128 16.2231 20.218 16.4031 20.398C16.5951 20.578 16.6911 20.812 16.6911 21.1C16.6911 21.376 16.5951 21.61 16.4031 21.802C16.2231 21.994 16.0011 22.09 15.7371 22.09Z" fill="#303030"/>
<path d="M18.7416 22V12.244H21.9996V15.088L21.5136 14.278C21.8016 13.546 22.2696 13 22.9176 12.64C23.5656 12.268 24.3516 12.082 25.2756 12.082V15.16C25.1196 15.136 24.9816 15.124 24.8616 15.124C24.7536 15.112 24.6336 15.106 24.5016 15.106C23.8056 15.106 23.2416 15.298 22.8096 15.682C22.3776 16.054 22.1616 16.666 22.1616 17.518V22H18.7416Z" fill="white"/>
</svg>
