<svg width="120" height="20" viewBox="0 0 120 20" fill="none" xmlns="http://www.w3.org/2000/svg">
<circle cx="10" cy="10" r="10" fill="#84CC16"/>
<path d="M6.85998 14.072C6.21998 14.072 5.72398 13.9 5.37198 13.556C5.01998 13.212 4.84398 12.72 4.84398 12.08V6.248H5.99598V12.032C5.99598 12.376 6.07998 12.64 6.24798 12.824C6.42398 13.008 6.67198 13.1 6.99198 13.1C7.35198 13.1 7.65198 13 7.89198 12.8L8.25198 13.628C8.07598 13.78 7.86398 13.892 7.61598 13.964C7.37598 14.036 7.12398 14.072 6.85998 14.072ZM3.76398 8.588V7.64H7.81998V8.588H3.76398ZM9.82473 14.06C9.64873 14.06 9.49673 13.996 9.36873 13.868C9.24873 13.74 9.18873 13.584 9.18873 13.4C9.18873 13.208 9.24873 13.052 9.36873 12.932C9.49673 12.812 9.64873 12.752 9.82473 12.752C10.0007 12.752 10.1487 12.812 10.2687 12.932C10.3967 13.052 10.4607 13.208 10.4607 13.4C10.4607 13.584 10.3967 13.74 10.2687 13.868C10.1487 13.996 10.0007 14.06 9.82473 14.06Z" fill="#333333"/>
<path d="M11.8277 14V7.496H13.9997V9.392L13.6757 8.852C13.8677 8.364 14.1797 8 14.6117 7.76C15.0437 7.512 15.5677 7.388 16.1837 7.388V9.44C16.0797 9.424 15.9877 9.416 15.9077 9.416C15.8357 9.408 15.7557 9.404 15.6677 9.404C15.2037 9.404 14.8277 9.532 14.5397 9.788C14.2517 10.036 14.1077 10.444 14.1077 11.012V14H11.8277Z" fill="#F9FAFB"/>
<path d="M27.822 15.084C27.0753 15.084 26.4967 14.8833 26.086 14.482C25.6753 14.0807 25.47 13.5067 25.47 12.76V5.956H26.814V12.704C26.814 13.1053 26.912 13.4133 27.108 13.628C27.3133 13.8427 27.6027 13.95 27.976 13.95C28.396 13.95 28.746 13.8333 29.026 13.6L29.446 14.566C29.2407 14.7433 28.9933 14.874 28.704 14.958C28.424 15.042 28.13 15.084 27.822 15.084ZM24.21 8.686V7.58H28.942V8.686H24.21ZM31.0709 15V7.58H32.3589V9.596L32.2329 9.092C32.4382 8.57867 32.7835 8.18667 33.2689 7.916C33.7542 7.64533 34.3515 7.51 35.0609 7.51V8.812C35.0049 8.80267 34.9489 8.798 34.8929 8.798C34.8462 8.798 34.7995 8.798 34.7529 8.798C34.0342 8.798 33.4649 9.01267 33.0449 9.442C32.6249 9.87133 32.4149 10.492 32.4149 11.304V15H31.0709ZM39.953 15.084C39.1597 15.084 38.4597 14.9207 37.853 14.594C37.2557 14.2673 36.789 13.8193 36.453 13.25C36.1263 12.6807 35.963 12.0273 35.963 11.29C35.963 10.5527 36.1217 9.89933 36.439 9.33C36.7657 8.76067 37.209 8.31733 37.769 8C38.3383 7.67333 38.9777 7.51 39.687 7.51C40.4057 7.51 41.0403 7.66867 41.591 7.986C42.1417 8.30333 42.571 8.75133 42.879 9.33C43.1963 9.89933 43.355 10.5667 43.355 11.332C43.355 11.388 43.3503 11.4533 43.341 11.528C43.341 11.6027 43.3363 11.6727 43.327 11.738H37.013V10.772H42.627L42.081 11.108C42.0903 10.632 41.9923 10.2073 41.787 9.834C41.5817 9.46067 41.297 9.17133 40.933 8.966C40.5783 8.75133 40.163 8.644 39.687 8.644C39.2203 8.644 38.805 8.75133 38.441 8.966C38.077 9.17133 37.7923 9.46533 37.587 9.848C37.3817 10.2213 37.279 10.6507 37.279 11.136V11.36C37.279 11.8547 37.391 12.298 37.615 12.69C37.8483 13.0727 38.1703 13.3713 38.581 13.586C38.9917 13.8007 39.463 13.908 39.995 13.908C40.4337 13.908 40.8303 13.8333 41.185 13.684C41.549 13.5347 41.8663 13.3107 42.137 13.012L42.879 13.88C42.543 14.272 42.123 14.5707 41.619 14.776C41.1243 14.9813 40.569 15.084 39.953 15.084ZM47.7693 15.084C47.0226 15.084 46.4439 14.8833 46.0333 14.482C45.6226 14.0807 45.4173 13.5067 45.4173 12.76V5.956H46.7613V12.704C46.7613 13.1053 46.8593 13.4133 47.0553 13.628C47.2606 13.8427 47.5499 13.95 47.9233 13.95C48.3433 13.95 48.6933 13.8333 48.9733 13.6L49.3933 14.566C49.1879 14.7433 48.9406 14.874 48.6513 14.958C48.3713 15.042 48.0773 15.084 47.7693 15.084ZM44.1573 8.686V7.58H48.8893V8.686H44.1573ZM54.076 15.084C53.2827 15.084 52.5827 14.9207 51.976 14.594C51.3787 14.2673 50.912 13.8193 50.576 13.25C50.2494 12.6807 50.086 12.0273 50.086 11.29C50.086 10.5527 50.2447 9.89933 50.562 9.33C50.8887 8.76067 51.332 8.31733 51.892 8C52.4614 7.67333 53.1007 7.51 53.81 7.51C54.5287 7.51 55.1634 7.66867 55.714 7.986C56.2647 8.30333 56.694 8.75133 57.002 9.33C57.3194 9.89933 57.478 10.5667 57.478 11.332C57.478 11.388 57.4734 11.4533 57.464 11.528C57.464 11.6027 57.4594 11.6727 57.45 11.738H51.136V10.772H56.75L56.204 11.108C56.2134 10.632 56.1154 10.2073 55.91 9.834C55.7047 9.46067 55.42 9.17133 55.056 8.966C54.7014 8.75133 54.286 8.644 53.81 8.644C53.3434 8.644 52.928 8.75133 52.564 8.966C52.2 9.17133 51.9154 9.46533 51.71 9.848C51.5047 10.2213 51.402 10.6507 51.402 11.136V11.36C51.402 11.8547 51.514 12.298 51.738 12.69C51.9714 13.0727 52.2934 13.3713 52.704 13.586C53.1147 13.8007 53.586 13.908 54.118 13.908C54.5567 13.908 54.9534 13.8333 55.308 13.684C55.672 13.5347 55.9894 13.3107 56.26 13.012L57.002 13.88C56.666 14.272 56.246 14.5707 55.742 14.776C55.2474 14.9813 54.692 15.084 54.076 15.084ZM63.3063 7.51C63.913 7.51 64.445 7.62667 64.9023 7.86C65.369 8.09333 65.733 8.448 65.9943 8.924C66.2556 9.4 66.3863 10.002 66.3863 10.73V15H65.0423V10.884C65.0423 10.1653 64.865 9.624 64.5103 9.26C64.165 8.896 63.675 8.714 63.0403 8.714C62.5643 8.714 62.149 8.80733 61.7943 8.994C61.4396 9.18067 61.1643 9.456 60.9683 9.82C60.7816 10.184 60.6883 10.6367 60.6883 11.178V15H59.3443V7.58H60.6323V9.582L60.4223 9.05C60.665 8.56467 61.0383 8.18667 61.5423 7.916C62.0463 7.64533 62.6343 7.51 63.3063 7.51Z" fill="#F3F4F6"/>
<path d="M69.0836 15.07C68.8783 15.07 68.7009 14.9953 68.5516 14.846C68.4116 14.6967 68.3416 14.5147 68.3416 14.3C68.3416 14.076 68.4116 13.894 68.5516 13.754C68.7009 13.614 68.8783 13.544 69.0836 13.544C69.2889 13.544 69.4616 13.614 69.6016 13.754C69.7509 13.894 69.8256 14.076 69.8256 14.3C69.8256 14.5147 69.7509 14.6967 69.6016 14.846C69.4616 14.9953 69.2889 15.07 69.0836 15.07Z" fill="#333333"/>
<path d="M71.4204 15V7.412H73.9544V9.624L73.5764 8.994C73.8004 8.42467 74.1644 8 74.6684 7.72C75.1724 7.43067 75.7837 7.286 76.5024 7.286V9.68C76.3811 9.66133 76.2737 9.652 76.1804 9.652C76.0964 9.64267 76.0031 9.638 75.9004 9.638C75.3591 9.638 74.9204 9.78733 74.5844 10.086C74.2484 10.3753 74.0804 10.8513 74.0804 11.514V15H71.4204ZM81.5077 15.126C80.6117 15.126 79.8277 14.958 79.1557 14.622C78.4931 14.2767 77.9751 13.81 77.6017 13.222C77.2377 12.6247 77.0557 11.948 77.0557 11.192C77.0557 10.436 77.2331 9.764 77.5877 9.176C77.9517 8.57867 78.4511 8.11667 79.0857 7.79C79.7204 7.454 80.4344 7.286 81.2277 7.286C81.9744 7.286 82.6557 7.44 83.2717 7.748C83.8877 8.04667 84.3777 8.49 84.7417 9.078C85.1057 9.666 85.2877 10.38 85.2877 11.22C85.2877 11.3133 85.2831 11.4207 85.2737 11.542C85.2644 11.6633 85.2551 11.7753 85.2457 11.878H79.2397V10.478H83.8317L82.8237 10.87C82.8331 10.5247 82.7677 10.226 82.6277 9.974C82.4971 9.722 82.3104 9.526 82.0677 9.386C81.8344 9.246 81.5591 9.176 81.2417 9.176C80.9244 9.176 80.6444 9.246 80.4017 9.386C80.1684 9.526 79.9864 9.72667 79.8557 9.988C79.7251 10.24 79.6597 10.5387 79.6597 10.884V11.29C79.6597 11.6633 79.7344 11.9853 79.8837 12.256C80.0424 12.5267 80.2664 12.7367 80.5557 12.886C80.8451 13.026 81.1904 13.096 81.5917 13.096C81.9651 13.096 82.2824 13.0447 82.5437 12.942C82.8144 12.83 83.0804 12.662 83.3417 12.438L84.7417 13.894C84.3777 14.2953 83.9297 14.6033 83.3977 14.818C82.8657 15.0233 82.2357 15.126 81.5077 15.126ZM86.5142 15V7.412H89.1742V15H86.5142ZM87.8442 6.572C87.3588 6.572 86.9668 6.43667 86.6682 6.166C86.3695 5.89533 86.2202 5.55933 86.2202 5.158C86.2202 4.75667 86.3695 4.42067 86.6682 4.15C86.9668 3.87933 87.3588 3.744 87.8442 3.744C88.3295 3.744 88.7215 3.87467 89.0202 4.136C89.3188 4.388 89.4682 4.71467 89.4682 5.116C89.4682 5.536 89.3188 5.886 89.0202 6.166C88.7308 6.43667 88.3388 6.572 87.8442 6.572ZM93.6608 15.126C93.0168 15.126 92.3868 15.0513 91.7708 14.902C91.1642 14.7527 90.6742 14.566 90.3008 14.342L91.0988 12.522C91.4535 12.7367 91.8688 12.9093 92.3448 13.04C92.8208 13.1613 93.2875 13.222 93.7448 13.222C94.1928 13.222 94.5008 13.1753 94.6688 13.082C94.8462 12.9887 94.9348 12.8627 94.9348 12.704C94.9348 12.5547 94.8508 12.4473 94.6828 12.382C94.5242 12.3073 94.3095 12.2513 94.0388 12.214C93.7775 12.1767 93.4882 12.1347 93.1708 12.088C92.8535 12.0413 92.5315 11.9807 92.2048 11.906C91.8875 11.822 91.5935 11.7007 91.3228 11.542C91.0615 11.374 90.8515 11.15 90.6928 10.87C90.5342 10.59 90.4548 10.2353 90.4548 9.806C90.4548 9.32067 90.5948 8.89133 90.8748 8.518C91.1642 8.13533 91.5842 7.83667 92.1348 7.622C92.6855 7.398 93.3575 7.286 94.1508 7.286C94.6828 7.286 95.2195 7.342 95.7608 7.454C96.3115 7.55667 96.7735 7.71533 97.1468 7.93L96.3488 9.736C95.9755 9.52133 95.6022 9.37667 95.2288 9.302C94.8555 9.218 94.5008 9.176 94.1648 9.176C93.7168 9.176 93.3995 9.22733 93.2128 9.33C93.0355 9.43267 92.9468 9.55867 92.9468 9.708C92.9468 9.85733 93.0262 9.974 93.1848 10.058C93.3435 10.1327 93.5535 10.1933 93.8148 10.24C94.0855 10.2773 94.3795 10.3193 94.6968 10.366C95.0142 10.4033 95.3315 10.464 95.6488 10.548C95.9755 10.632 96.2695 10.758 96.5308 10.926C96.8015 11.0847 97.0162 11.304 97.1748 11.584C97.3335 11.8547 97.4128 12.2047 97.4128 12.634C97.4128 13.1007 97.2682 13.5207 96.9788 13.894C96.6988 14.2673 96.2788 14.566 95.7188 14.79C95.1682 15.014 94.4822 15.126 93.6608 15.126ZM102.535 15.126C101.639 15.126 100.855 14.958 100.183 14.622C99.5204 14.2767 99.0024 13.81 98.6291 13.222C98.2651 12.6247 98.0831 11.948 98.0831 11.192C98.0831 10.436 98.2604 9.764 98.6151 9.176C98.9791 8.57867 99.4784 8.11667 100.113 7.79C100.748 7.454 101.462 7.286 102.255 7.286C103.002 7.286 103.683 7.44 104.299 7.748C104.915 8.04667 105.405 8.49 105.769 9.078C106.133 9.666 106.315 10.38 106.315 11.22C106.315 11.3133 106.31 11.4207 106.301 11.542C106.292 11.6633 106.282 11.7753 106.273 11.878H100.267V10.478H104.859L103.851 10.87C103.86 10.5247 103.795 10.226 103.655 9.974C103.524 9.722 103.338 9.526 103.095 9.386C102.862 9.246 102.586 9.176 102.269 9.176C101.952 9.176 101.672 9.246 101.429 9.386C101.196 9.526 101.014 9.72667 100.883 9.988C100.752 10.24 100.687 10.5387 100.687 10.884V11.29C100.687 11.6633 100.762 11.9853 100.911 12.256C101.07 12.5267 101.294 12.7367 101.583 12.886C101.872 13.026 102.218 13.096 102.619 13.096C102.992 13.096 103.31 13.0447 103.571 12.942C103.842 12.83 104.108 12.662 104.369 12.438L105.769 13.894C105.405 14.2953 104.957 14.6033 104.425 14.818C103.893 15.0233 103.263 15.126 102.535 15.126ZM112.484 7.286C113.072 7.286 113.604 7.40733 114.079 7.65C114.556 7.88333 114.929 8.24733 115.2 8.742C115.48 9.23667 115.62 9.876 115.62 10.66V15H112.96V11.094C112.96 10.5527 112.848 10.1607 112.624 9.918C112.409 9.666 112.106 9.54 111.714 9.54C111.434 9.54 111.177 9.60533 110.944 9.736C110.71 9.85733 110.528 10.0487 110.398 10.31C110.267 10.5713 110.202 10.912 110.202 11.332V15H107.542V7.412H110.076V9.568L109.586 8.938C109.875 8.38733 110.272 7.97667 110.776 7.706C111.28 7.426 111.849 7.286 112.484 7.286Z" fill="#F9FAFB"/>
</svg>
